HIERARCHY
ROOT Hips
{
	OFFSET	0.00	0.00	0.00
	CHANNELS 6 Xposition Yposition Zposition Zrotation Xrotation Yrotation
	JOINT LeftUpLeg
	{
		OFFSET	 0.126116	-0.014019	-0.065224
		CHANNELS 3 Zrotation Xrotation Yrotation
		JOINT LeftLeg
		{
			OFFSET	 0.000000	 0.000000	 0.569914
			CHANNELS 3 Zrotation Xrotation Yrotation
			JOINT LeftFoot
			{
				OFFSET	 0.000000	 0.000000	 0.544423
				CHANNELS 3 Zrotation Xrotation Yrotation
				JOINT LeftToeBase
				{
					OFFSET	 0.000000	 0.000000	 0.207117
					CHANNELS 3 Zrotation Xrotation Yrotation
					End Site
					{
						OFFSET	 0.000000	 0.000000	 0.207117
					}
				}
			}
		}
	}
	JOINT RightUpLeg
	{
		OFFSET	-0.124023	-0.008373	-0.065224
		CHANNELS 3 Zrotation Xrotation Yrotation
		JOINT RightLeg
		{
			OFFSET	 0.000000	 0.000000	 0.570047
			CHANNELS 3 Zrotation Xrotation Yrotation
			JOINT RightFoot
			{
				OFFSET	 0.000000	 0.000000	 0.544354
				CHANNELS 3 Zrotation Xrotation Yrotation
				JOINT RightToeBase
				{
					OFFSET	 0.000000	 0.000000	 0.207540
					CHANNELS 3 Zrotation Xrotation Yrotation
					End Site
					{
						OFFSET	 0.000000	 0.000000	 0.207540
					}
				}
			}
		}
	}
	JOINT Spine
	{
		OFFSET	 0.000184	-0.007763	 0.117403
		CHANNELS 3 Zrotation Xrotation Yrotation
		JOINT Spine1
		{
			OFFSET	 0.000000	 0.000000	 0.137269
			CHANNELS 3 Zrotation Xrotation Yrotation
			JOINT Spine2
			{
				OFFSET	 0.000000	 0.000000	 0.156879
				CHANNELS 3 Zrotation Xrotation Yrotation
				JOINT LeftShoulder
				{
					OFFSET	 0.080501	-0.002496	 0.160144
					CHANNELS 3 Zrotation Xrotation Yrotation
					JOINT LeftArm
					{
						OFFSET	 0.000000	 0.000000	 0.164363
						CHANNELS 3 Zrotation Xrotation Yrotation
						JOINT LeftForeArm
						{
							OFFSET	 0.000000	 0.000000	 0.364576
							CHANNELS 3 Zrotation Xrotation Yrotation
							JOINT LeftHand
							{
								OFFSET	 0.000000	 0.000000	 0.360812
								CHANNELS 3 Zrotation Xrotation Yrotation
								JOINT LeftHandIndex1
								{
									OFFSET	 0.000000	 0.000000	 0.086006
									CHANNELS 3 Zrotation Xrotation Yrotation
									JOINT LeftHandIndex2
									{
										OFFSET	 0.000000	 0.000000	 0.047236
										CHANNELS 3 Zrotation Xrotation Yrotation
										JOINT LeftHandIndex3
										{
											OFFSET	-0.004284	-0.000551	 0.038166
											CHANNELS 3 Zrotation Xrotation Yrotation
											End Site
											{
												OFFSET	-0.004284	-0.000551	 0.038166
											}
										}
									}
								}
							}
						}
					}
				}
				JOINT Neck
				{
					OFFSET	 0.000000	 0.000000	 0.176489
					CHANNELS 3 Zrotation Xrotation Yrotation
					JOINT Head
					{
						OFFSET	 0.000000	-0.001747	 0.077940
						CHANNELS 3 Zrotation Xrotation Yrotation
						End Site
						{
							OFFSET	 0.000000	-0.001747	 0.077940
						}
					}
				}
				JOINT RightShoulder
				{
					OFFSET	-0.080363	 0.000306	 0.159706
					CHANNELS 3 Zrotation Xrotation Yrotation
					JOINT RightArm
					{
						OFFSET	 0.000000	 0.000000	 0.164196
						CHANNELS 3 Zrotation Xrotation Yrotation
						JOINT RightForeArm
						{
							OFFSET	 0.000000	 0.000000	 0.365611
							CHANNELS 3 Zrotation Xrotation Yrotation
							JOINT RightHand
							{
								OFFSET	 0.000000	 0.000000	 0.360648
								CHANNELS 3 Zrotation Xrotation Yrotation
								JOINT RightHandIndex1
								{
									OFFSET	 0.000000	 0.000000	 0.069977
									CHANNELS 3 Zrotation Xrotation Yrotation
									JOINT RightHandIndex2
									{
										OFFSET	 0.000000	 0.000000	 0.052305
										CHANNELS 3 Zrotation Xrotation Yrotation
										JOINT RightHandIndex3
										{
											OFFSET	 0.009002	-0.000782	 0.042196
											CHANNELS 3 Zrotation Xrotation Yrotation
											End Site
											{
												OFFSET	 0.009002	-0.000782	 0.042196
											}
										}
									}
								}
							}
						}
					}
				}
			}
		}
	}
}
MOTION
Frames:    13
Frame Time: 0.03333334
 0.014206	 0.063184	 1.202498	 4.076454	-1.567833	-2.748533	 6.195021	-11.788780	-173.138800	 0.366723	-39.170750	-0.002893	 54.067940	 81.290490	-57.740480	-2.371171	 31.315190	-0.063156	-9.082226	-29.452940	-175.543500	 10.178530	-52.587150	 8.692898	 9.724209	 70.722290	-4.615892	 2.357925	 33.152720	 0.106778	-6.664858	 8.829332	 2.217971	-2.080084	 2.102920	-1.563122	 3.389472	-1.806016	 1.636277	-93.784370	 58.855260	 175.729600	 10.460850	 32.544980	-43.677540	-0.888855	-0.049429	-0.742334	-1.967986	-24.606770	-6.781719	-4.870878	 19.207520	-2.785045	-3.886073	 21.414620	 2.207373	-4.807972	 5.548948	 0.146768	-0.122481	-5.019554	 0.160406	 1.113453	 2.081670	 2.904617	 89.828410	 61.586480	-179.889900	-21.340440	 53.669050	 13.845550	-0.921265	-1.653443	 9.311794	-4.315131	-10.714130	 0.856987	 6.303563	 25.902030	-0.574532	 1.740846	 45.843620	-6.863759	 0.365766	 24.975830	 3.650418
 0.011439	 0.006613	 1.200289	 5.172831	-0.911609	-2.722067	 4.971476	-9.181816	-173.797300	 1.058740	-38.197170	 0.436593	 63.646650	 82.747200	-67.823570	-2.369290	 31.633650	-0.070345	-11.990600	-33.557870	-176.437900	 9.920797	-45.610920	 7.674457	 8.571938	 71.894580	-4.147758	 2.358922	 33.006520	 0.103383	-13.405090	 8.442492	 2.021687	-2.243614	 2.388475	-1.517896	 3.222324	-2.310766	 1.673821	-93.997970	 58.962850	 175.261600	 8.869971	 29.311380	-44.997230	-5.219155	 0.141332	-2.813162	-7.089919	-31.343170	-11.297840	-4.868834	 19.277070	-2.793194	-3.876275	 21.539920	 2.197422	-4.805730	 5.575367	 0.145222	-0.062171	-5.088037	 0.198062	 1.128030	 1.883891	 2.694369	 89.758730	 61.681170	 179.944200	-21.093710	 55.603930	 10.035020	 1.935565	-1.311058	 13.526080	-0.846414	-17.162640	 1.676854	 6.288091	 24.389850	-0.539897	 1.944007	 44.223270	-7.045202	 0.618393	 23.870590	 3.521845
 0.008316	-0.052985	 1.196706	 5.958625	-0.135974	-2.757503	 3.957086	-6.174014	-174.448300	 1.360189	-36.523680	 0.599641	 74.660050	 83.875100	-79.021110	-2.367900	 31.862030	-0.075535	-14.701940	-35.359520	-177.850100	 9.385550	-34.575410	 5.797366	 4.915418	 69.803000	-1.123283	 2.359108	 32.980620	 0.102768	-18.643900	 7.896073	 1.807835	-2.457328	 2.733088	-1.408733	 3.071730	-2.776268	 1.667122	-94.196280	 58.994620	 174.834400	 6.886065	 26.411730	-46.077480	-8.203998	 0.467654	-4.461425	-11.411430	-36.232250	-15.192310	-4.861708	 19.458440	-2.804958	-3.864957	 21.684280	 2.185908	-4.803091	 5.606380	 0.143406	-0.021657	-5.118372	 0.256593	 1.088997	 1.745946	 2.587770	 89.680890	 61.820840	 179.757300	-20.682390	 57.172910	 7.934652	 3.848236	-0.465521	 13.605870	 1.788979	-21.904570	 2.791375	 6.268265	 22.989530	-0.560115	 2.105505	 42.858170	-7.188198	 0.919539	 22.524350	 3.373865
 0.004656	-0.113737	 1.189570	 6.383013	 0.667699	-3.138037	 3.404644	-2.847965	-174.813600	 1.534118	-34.467230	 0.668657	 89.410070	 84.766100	-93.870940	-2.365330	 32.272990	-0.084917	-16.198930	-36.723110	-179.005300	 9.410981	-24.416320	 4.240401	 3.479341	 66.723610	-0.754401	 2.361569	 32.611480	 0.094232	-23.857270	 7.162252	 1.899415	-2.632838	 3.147325	-1.256403	 2.932343	-3.191337	 1.605093	-94.381790	 58.984430	 174.440600	 5.376422	 24.047260	-47.045560	-12.009280	 1.007919	-6.236374	-16.640540	-41.167990	-18.824650	-4.844968	 19.837910	-2.820364	-3.847196	 21.909610	 2.167866	-4.792994	 5.725313	 0.136430	-0.003766	-5.188916	 0.319544	 0.990350	 1.607224	 2.575408	 89.546690	 61.972300	 179.432100	-19.750710	 58.237450	 6.766616	 5.435366	 0.558895	 11.877900	 4.066284	-26.285520	 3.735649	 6.235885	 21.124520	-0.625566	 2.270773	 41.385280	-7.333292	 1.340971	 20.588380	 3.176805
 0.000180	-0.169227	 1.178768	 6.511042	 1.054347	-3.480407	 3.065686	 0.677772	-175.233200	 1.624123	-32.630300	 0.685641	 103.599700	 85.440610	-108.064900	-2.358418	 33.315400	-0.108991	-15.582800	-40.615550	-179.418200	 9.330655	-21.865840	 3.791120	 10.213410	 72.835430	-8.313608	 2.352222	 33.955530	 0.125606	-28.465140	 6.566953	 2.055588	-2.735791	 3.928763	-1.112834	 2.866577	-3.663661	 1.545040	-94.475300	 58.961360	 174.245000	 4.107227	 22.692270	-47.936080	-15.410480	 1.682320	-7.865620	-21.805570	-44.122720	-22.409930	-4.824828	 20.235350	-2.822789	-3.824037	 22.201280	 2.144355	-4.770056	 5.994568	 0.120552	 0.024272	-5.281914	 0.343738	 0.940818	 1.433249	 2.526583	 89.442050	 62.050080	 179.177200	-18.304430	 58.912310	 5.023489	 6.727908	 1.445491	 11.298040	 5.945487	-29.718410	 4.286845	 6.194422	 18.973790	-0.712455	 2.543714	 38.770360	-7.569843	 1.791503	 18.453300	 2.979739
-0.004828	-0.225742	 1.168297	 6.771980	 1.125749	-3.700577	 2.546732	 4.858854	-175.804500	 1.794814	-29.735130	 0.715377	 101.248500	 86.350940	-105.736700	-2.341642	 35.528960	-0.161661	-15.515620	-43.860600	-179.973100	 10.069060	-21.850110	 4.071379	 16.003180	 74.988130	-15.225250	 2.337675	 35.800900	 0.169969	-32.776160	 6.522695	 2.163113	-2.864956	 3.964161	-1.082896	 2.820099	-4.017146	 1.528258	-94.536340	 58.908760	 174.123700	 3.059349	 22.079810	-48.152530	-18.010840	 2.449896	-9.339859	-27.026740	-45.909860	-26.863170	-4.839987	 20.461040	-2.976920	-3.796498	 22.545410	 2.116376	-4.734513	 6.409877	 0.095826	 0.090550	-5.376145	 0.353933	 0.958487	 1.318845	 2.291471	 89.370170	 61.989400	 179.005700	-16.620710	 59.127480	 3.680935	 8.107452	 2.355581	 9.412932	 7.975691	-32.294300	 4.912780	 6.167453	 16.796770	-0.702731	 2.811673	 35.960380	-7.797812	 2.234539	 16.290130	 2.800361
-0.011025	-0.290756	 1.160350	 7.021904	 1.090460	-3.491297	 1.922240	 9.633353	-176.867100	 2.188685	-26.161630	 0.809712	 56.866520	 86.970820	-61.415270	-2.298372	 39.973460	-0.274920	-15.291120	-43.691580	 179.235300	 9.965257	-21.007680	 3.883752	 13.595030	 73.311200	-12.744060	 2.337975	 35.765300	 0.169097	-37.003860	 6.447781	 2.003779	-3.084828	 3.655630	-1.370765	 2.756381	-4.110989	 1.602096	-94.525970	 59.142350	 174.107000	 2.273867	 22.041310	-47.567090	-20.546880	 3.346509	-10.752080	-32.105160	-46.354410	-31.235520	-4.870489	 20.579310	-3.189448	-3.770187	 22.871280	 2.089660	-4.687962	 6.950037	 0.063254	 0.164072	-5.464782	 0.294034	 1.039655	 1.263877	 2.092888	 89.356480	 61.726330	 178.982500	-15.132410	 59.196610	 0.982147	 9.500187	 3.245358	 10.826840	 9.893531	-33.750240	 5.496799	 6.180980	 14.554310	-0.493305	 2.985768	 33.993290	-7.943320	 2.676025	 14.075160	 2.636537
-0.018338	-0.359148	 1.154364	 7.280055	 0.795266	-2.689550	 1.815930	 13.333620	-178.763900	 1.863109	-25.895900	 0.659770	 15.072780	 85.497120	-18.712640	-2.184436	 47.669730	-0.504344	-13.812980	-41.662420	 178.575900	 7.213145	-22.567560	 3.076012	 6.042751	 70.902310	-1.508321	 2.340469	 35.466880	 0.161821	-40.740360	 6.461706	 1.261595	-3.407419	 3.231201	-1.657715	 2.656733	-3.933829	 1.589608	-94.465100	 59.342040	 174.204100	 1.938854	 22.211580	-46.425080	-23.067420	 4.296911	-12.010920	-34.943500	-45.069870	-33.034300	-4.890732	 20.695850	-3.344391	-3.755684	 23.049650	 2.074938	-4.635172	 7.557539	 0.026038	 0.246279	-5.476741	 0.247770	 1.147403	 1.334526	 2.197029	 89.354070	 61.462780	 178.986400	-13.943580	 58.942830	-1.006242	 10.899580	 4.189159	 12.089990	 11.327670	-33.660470	 5.920232	 6.256321	 12.343530	-0.044635	 3.112565	 32.485200	-8.047845	 3.063748	 12.084280	 2.505496
-0.026881	-0.438138	 1.151490	 8.286489	 0.021845	-1.692611	 2.387359	 15.147700	 178.434100	-0.112411	-29.514990	-0.229149	-2.701521	 79.299710	 2.517348	-1.963931	 56.329510	-0.847869	-11.617290	-39.027770	 178.519600	 6.380848	-26.049900	 3.148175	-7.080060	 65.413630	 15.727940	 2.334380	 36.184900	 0.179406	-44.177840	 6.764056	 0.302175	-3.660973	 3.047276	-1.708883	 2.436445	-3.738331	 1.407560	-94.396860	 59.083490	 174.392700	 2.222360	 22.249870	-45.233190	-25.828550	 5.396307	-13.255170	-34.817920	-41.426250	-31.342270	-4.896100	 20.906130	-3.446134	-3.735521	 23.296270	 2.054474	-4.571597	 8.281949	-0.019153	 0.361409	-5.417953	 0.284089	 1.220508	 1.600651	 2.400149	 89.226310	 61.413420	 178.686100	-12.792070	 58.623550	-2.202782	 12.822190	 5.284442	 13.338060	 13.240030	-31.480690	 6.835380	 6.336290	 10.034800	 0.353459	 3.295589	 30.189700	-8.196363	 3.412140	 10.261860	 2.398374
-0.035737	-0.507033	 1.152907	 9.672434	-0.587800	-0.678749	 2.095677	 13.305800	 175.894400	 0.795403	-37.735950	 0.270940	-4.449907	 69.621960	 6.579065	-1.261740	 68.690220	-1.716551	-13.209880	-38.248640	 177.217300	 8.149581	-31.900240	 4.734589	-8.531060	 61.788600	 17.433200	 2.343927	 35.039820	 0.151477	-46.039240	 6.851963	-0.450981	-3.752191	 3.156027	-1.889390	 2.114772	-3.643876	 1.330319	-94.289720	 59.215520	 174.601400	 3.258861	 22.762250	-44.367540	-27.464710	 6.342989	-14.192160	-33.080520	-36.367110	-28.818060	-4.841749	 21.182780	-3.217844	-3.693669	 23.803090	 2.011992	-4.524597	 8.812342	-0.052813	 0.400616	-5.346602	 0.258780	 1.161850	 1.913753	 2.362997	 89.067390	 61.042030	 178.332200	-11.865520	 58.131890	-2.890187	 15.303470	 6.241744	 14.278380	 15.487530	-27.869680	 7.535754	 6.361831	 8.797485	 0.472364	 3.378259	 29.104950	-8.262440	 3.606018	 9.235028	 2.343238
-0.044951	-0.573510	 1.157297	 10.209030	-0.921368	 0.385245	 6.018311	 9.370627	 171.242100	 1.908363	-47.126830	 1.140204	-5.780990	 56.735230	 14.613250	-1.236697	 68.955440	-1.745081	-15.556320	-37.054810	 175.456200	 7.801277	-37.262330	 5.206816	-6.250201	 61.844150	 15.871500	 2.362253	 32.506460	 0.091809	-46.203290	 6.863952	-1.148203	-3.640264	 2.963285	-2.028475	 1.865560	-3.518038	 1.179533	-94.143490	 59.738000	 174.836900	 4.690354	 24.035080	-43.365600	-27.991320	 7.226689	-14.983610	-30.654250	-30.839960	-26.063060	-4.784357	 21.372360	-2.936214	-3.642866	 24.408900	 1.960452	-4.486259	 9.241846	-0.080429	 0.365777	-5.360034	 0.193873	 1.014657	 2.114244	 2.314000	 88.999290	 60.437110	 178.210000	-11.479460	 57.412150	-2.890414	 17.971400	 7.145627	 15.070150	 17.581360	-23.758420	 7.622514	 6.390464	 8.792643	 0.586448	 3.387405	 28.983050	-8.269713	 3.670398	 8.892175	 2.325649
-0.052214	-0.638052	 1.163546	 9.219007	-1.439312	 1.317957	 12.152670	 4.343416	 166.387900	 0.628242	-55.556340	 0.227225	 0.761525	 48.420150	 12.871740	-2.270963	 42.212700	-0.336625	-15.849370	-34.591860	 174.162400	 6.812809	-40.402180	 4.923570	-4.667976	 63.862300	 15.037830	 2.372169	 30.874310	 0.054722	-44.438010	 7.217803	-1.809291	-3.287168	 2.717008	-1.828130	 1.823725	-3.400789	 0.800461	-94.059340	 59.796840	 175.011500	 5.887569	 25.388310	-42.267190	-28.348920	 8.040593	-15.646690	-28.264710	-25.582060	-22.420180	-4.745256	 21.733140	-2.814699	-3.591455	 25.011900	 1.908306	-4.438610	 9.771627	-0.114946	 0.291766	-5.398904	 0.176031	 0.791182	 2.122578	 2.416047	 89.066220	 60.265120	 178.372200	-11.864190	 56.690000	-1.217494	 20.307860	 7.977442	 15.731940	 19.104300	-19.070020	 7.052892	 6.404966	 9.831655	 0.639664	 3.312754	 29.967040	-8.210135	 3.591505	 9.312212	 2.347256
-0.057084	-0.697875	 1.171701	 7.680823	-2.115475	 1.966114	 16.621820	-1.753897	 163.554000	-3.735086	-64.177190	-3.680797	 6.207980	 48.447170	 7.281105	-2.378588	 29.966020	-0.033053	-15.215830	-31.324770	 173.400200	 6.354559	-41.854030	 4.759254	-4.747434	 66.948100	 15.312580	 2.374331	 30.484830	 0.046009	-41.515530	 7.707633	-2.275679	-2.823866	 2.844720	-1.533918	 1.890360	-3.444356	 0.489993	-94.007610	 59.562850	 175.158100	 6.994069	 26.683940	-41.304700	-28.775470	 8.756370	-16.182640	-26.519020	-20.605710	-18.786130	-4.683346	 22.568980	-2.699930	-3.538150	 25.626610	 1.854259	-4.367101	 10.558350	-0.167136	 0.202611	-5.367731	 0.131236	 0.559817	 2.002402	 2.441369	 89.253040	 60.325520	 178.794500	-12.795090	 55.553030	 2.188699	 22.483740	 8.708682	 16.264120	 20.096880	-14.185960	 5.906353	 6.396126	 11.552640	 0.592563	 3.152212	 32.000050	-8.080265	 3.389752	 10.379850	 2.404947
